<mxfile host="app.diagrams.net" modified="2023-07-31T16:30:05.427Z" agent="Mozilla/5.0 (Windows NT 10.0; Win64; x64) AppleWebKit/537.36 (KHTML, like Gecko) Chrome/115.0.0.0 Safari/537.36 Edg/115.0.1901.183" etag="XdXM10Z_eMSEqnPm007a" version="21.6.6" type="github">
  <diagram name="Page-1" id="SgKMpphEfs1q-WgxNBbC">
    <mxGraphModel dx="1002" dy="573" grid="1" gridSize="10" guides="1" tooltips="1" connect="1" arrows="1" fold="1" page="1" pageScale="1" pageWidth="850" pageHeight="1100" math="0" shadow="0">
      <root>
        <mxCell id="0" />
        <mxCell id="1" parent="0" />
        <mxCell id="hl2dnluvHD5HHpCaYDxJ-23" style="edgeStyle=orthogonalEdgeStyle;rounded=0;orthogonalLoop=1;jettySize=auto;html=1;exitX=0.5;exitY=1;exitDx=0;exitDy=0;entryX=0.5;entryY=0;entryDx=0;entryDy=0;" parent="1" source="hl2dnluvHD5HHpCaYDxJ-1" target="hl2dnluvHD5HHpCaYDxJ-2" edge="1">
          <mxGeometry relative="1" as="geometry" />
        </mxCell>
        <mxCell id="hl2dnluvHD5HHpCaYDxJ-1" value="Tenant-Tailwind Traders&lt;br&gt;" style="rounded=0;whiteSpace=wrap;html=1;fontStyle=3;fillColor=#6B9CFF;" parent="1" vertex="1">
          <mxGeometry x="360" y="40" width="120" height="60" as="geometry" />
        </mxCell>
        <mxCell id="hl2dnluvHD5HHpCaYDxJ-16" style="edgeStyle=orthogonalEdgeStyle;rounded=0;orthogonalLoop=1;jettySize=auto;html=1;exitX=0.5;exitY=1;exitDx=0;exitDy=0;" parent="1" source="hl2dnluvHD5HHpCaYDxJ-2" target="hl2dnluvHD5HHpCaYDxJ-4" edge="1">
          <mxGeometry relative="1" as="geometry" />
        </mxCell>
        <mxCell id="hl2dnluvHD5HHpCaYDxJ-18" style="edgeStyle=orthogonalEdgeStyle;rounded=0;orthogonalLoop=1;jettySize=auto;html=1;exitX=0;exitY=0.5;exitDx=0;exitDy=0;" parent="1" source="hl2dnluvHD5HHpCaYDxJ-2" edge="1">
          <mxGeometry relative="1" as="geometry">
            <mxPoint x="150" y="270" as="targetPoint" />
          </mxGeometry>
        </mxCell>
        <mxCell id="hl2dnluvHD5HHpCaYDxJ-20" style="edgeStyle=orthogonalEdgeStyle;rounded=0;orthogonalLoop=1;jettySize=auto;html=1;exitX=1;exitY=0.5;exitDx=0;exitDy=0;entryX=0.5;entryY=0;entryDx=0;entryDy=0;" parent="1" source="hl2dnluvHD5HHpCaYDxJ-2" target="hl2dnluvHD5HHpCaYDxJ-5" edge="1">
          <mxGeometry relative="1" as="geometry" />
        </mxCell>
        <mxCell id="hl2dnluvHD5HHpCaYDxJ-2" value="ManagementGroup-Tailwind Traders" style="rounded=1;whiteSpace=wrap;html=1;strokeColor=#99FF6E;fillStyle=dashed;fillColor=#B266FF;opacity=70;fontStyle=1;fontSize=12;gradientColor=default;" parent="1" vertex="1">
          <mxGeometry x="360" y="130" width="120" height="60" as="geometry" />
        </mxCell>
        <mxCell id="BvwbJ69Do7O_tulf3lWf-2" style="edgeStyle=orthogonalEdgeStyle;rounded=0;orthogonalLoop=1;jettySize=auto;html=1;exitX=0.5;exitY=1;exitDx=0;exitDy=0;" edge="1" parent="1" source="hl2dnluvHD5HHpCaYDxJ-3">
          <mxGeometry relative="1" as="geometry">
            <mxPoint x="70" y="430" as="targetPoint" />
          </mxGeometry>
        </mxCell>
        <mxCell id="BvwbJ69Do7O_tulf3lWf-4" style="edgeStyle=orthogonalEdgeStyle;rounded=0;orthogonalLoop=1;jettySize=auto;html=1;exitX=0.5;exitY=1;exitDx=0;exitDy=0;entryX=0.5;entryY=0;entryDx=0;entryDy=0;" edge="1" parent="1" source="hl2dnluvHD5HHpCaYDxJ-3" target="hl2dnluvHD5HHpCaYDxJ-7">
          <mxGeometry relative="1" as="geometry" />
        </mxCell>
        <mxCell id="hl2dnluvHD5HHpCaYDxJ-3" value="Product Development" style="rounded=1;whiteSpace=wrap;html=1;strokeColor=#99FF6E;fillStyle=dashed;fillColor=#B266FF;opacity=70;fontStyle=1;fontSize=12;gradientColor=default;" parent="1" vertex="1">
          <mxGeometry x="80" y="267" width="120" height="60" as="geometry" />
        </mxCell>
        <mxCell id="hl2dnluvHD5HHpCaYDxJ-4" value="Marketing" style="rounded=1;whiteSpace=wrap;html=1;strokeColor=#99FF6E;fillStyle=dashed;fillColor=#B266FF;opacity=70;fontStyle=1;fontSize=12;gradientColor=default;" parent="1" vertex="1">
          <mxGeometry x="350" y="267" width="120" height="60" as="geometry" />
        </mxCell>
        <mxCell id="hl2dnluvHD5HHpCaYDxJ-5" value="Sales" style="rounded=1;whiteSpace=wrap;html=1;strokeColor=#99FF6E;fillStyle=dashed;fillColor=#B266FF;opacity=70;fontStyle=1;fontSize=12;gradientColor=default;" parent="1" vertex="1">
          <mxGeometry x="620" y="267" width="120" height="60" as="geometry" />
        </mxCell>
        <mxCell id="hl2dnluvHD5HHpCaYDxJ-6" value="Subscription-Dev-Testing" style="shape=process;whiteSpace=wrap;html=1;backgroundOutline=1;" parent="1" vertex="1">
          <mxGeometry x="10" y="431" width="120" height="60" as="geometry" />
        </mxCell>
        <mxCell id="hl2dnluvHD5HHpCaYDxJ-7" value="Subscription-Production" style="shape=process;whiteSpace=wrap;html=1;backgroundOutline=1;" parent="1" vertex="1">
          <mxGeometry x="170" y="431" width="120" height="60" as="geometry" />
        </mxCell>
        <mxCell id="hl2dnluvHD5HHpCaYDxJ-8" value="" style="ellipse;whiteSpace=wrap;html=1;" parent="1" vertex="1">
          <mxGeometry x="360" y="441" width="120" height="30" as="geometry" />
        </mxCell>
        <mxCell id="hl2dnluvHD5HHpCaYDxJ-14" style="edgeStyle=orthogonalEdgeStyle;rounded=0;orthogonalLoop=1;jettySize=auto;html=1;exitX=0.5;exitY=0;exitDx=0;exitDy=0;" parent="1" source="hl2dnluvHD5HHpCaYDxJ-9" target="hl2dnluvHD5HHpCaYDxJ-6" edge="1">
          <mxGeometry relative="1" as="geometry" />
        </mxCell>
        <mxCell id="hl2dnluvHD5HHpCaYDxJ-9" value="Application of Policy enforcing VM sizing" style="ellipse;whiteSpace=wrap;html=1;fillColor=#663300;fontColor=#FFFFFF;" parent="1" vertex="1">
          <mxGeometry x="10" y="541" width="147.5" height="60" as="geometry" />
        </mxCell>
        <mxCell id="hl2dnluvHD5HHpCaYDxJ-12" style="edgeStyle=orthogonalEdgeStyle;rounded=0;orthogonalLoop=1;jettySize=auto;html=1;exitX=0.5;exitY=1;exitDx=0;exitDy=0;" parent="1" source="hl2dnluvHD5HHpCaYDxJ-10" target="hl2dnluvHD5HHpCaYDxJ-3" edge="1">
          <mxGeometry relative="1" as="geometry" />
        </mxCell>
        <mxCell id="hl2dnluvHD5HHpCaYDxJ-10" value="Application of Policy enforcing VM naming to specify proj name" style="ellipse;whiteSpace=wrap;html=1;fillColor=#663300;fontColor=#FFFFFF;" parent="1" vertex="1">
          <mxGeometry x="6.25" y="170" width="155" height="50" as="geometry" />
        </mxCell>
        <mxCell id="BvwbJ69Do7O_tulf3lWf-1" value="" style="endArrow=classic;html=1;rounded=0;" edge="1" parent="1">
          <mxGeometry width="50" height="50" relative="1" as="geometry">
            <mxPoint x="784" y="230" as="sourcePoint" />
            <mxPoint x="834" y="180" as="targetPoint" />
          </mxGeometry>
        </mxCell>
      </root>
    </mxGraphModel>
  </diagram>
</mxfile>
